PathFileType	4	(X/Y/Z)	C:/Users/opensim2020/Desktop/walking_exp_matlab/subject01_walking11_straight_02.trc																																																																																																																																		
DataRate	CameraRate	NumFrames	NumMarkers	Units	OrigDataRate	OrigDataStartFrame	OrigNumFrames																																																																																																																														
100	100	4	44	mm	100	2074	266																																																																																																																														
Frame#	Time	LFHD			RFHD			LBHD			RBHD			C7			T10			CLAV			STRN			RBAK			LSHO			LUPA			LELB			LFRM			LWRA			LWRB			LFIN			RSHO			RUPA			RELB			RFRM			RWRA			RWRB			RFIN			LASI			RASI			LPSI			RPSI			LTHI			LKNE			LTIB			LANK			LHEE			LTOE			RTHI			RKNE			RTIB			RANK			RHEE			RTOE			*39			*40			*41			*42			*43		
		X1	Y1	Z1	X2	Y2	Z2	X3	Y3	Z3	X4	Y4	Z4	X5	Y5	Z5	X6	Y6	Z6	X7	Y7	Z7	X8	Y8	Z8	X9	Y9	Z9	X10	Y10	Z10	X11	Y11	Z11	X12	Y12	Z12	X13	Y13	Z13	X14	Y14	Z14	X15	Y15	Z15	X16	Y16	Z16	X17	Y17	Z17	X18	Y18	Z18	X19	Y19	Z19	X20	Y20	Z20	X21	Y21	Z21	X22	Y22	Z22	X23	Y23	Z23	X24	Y24	Z24	X25	Y25	Z25	X26	Y26	Z26	X27	Y27	Z27	X28	Y28	Z28	X29	Y29	Z29	X30	Y30	Z30	X31	Y31	Z31	X32	Y32	Z32	X33	Y33	Z33	X34	Y34	Z34	X35	Y35	Z35	X36	Y36	Z36	X37	Y37	Z37	X38	Y38	Z38	X39	Y39	Z39	X40	Y40	Z40	X41	Y41	Z41	X42	Y42	Z42	X43	Y43	Z43	X44	Y44	Z44
																																																																																																																																					
134	1.33	35.87873	1667.76538	962.90515	69.77347	1670.94519	1072.47668	-81.41614	1634.58728	992.21649	-48.29991	1637.8219	1109.12097	-126.99593	1434.97778	1025.57336	-163.01341	1140.9646	1033.03882	14.8541	1366.39307	1026.43628	58.7892	1211.57593	1022.29065	-184.53561	1238.98145	1100.44031	-45.96973	1398.38538	865.05438	-70.47065	1214.75049	778.5592	-71.03061	1063.271	773.70251	-20.05496	963.19659	741.57941	75.49698	860.5863	750.50488	21.14867	848.61499	728.3103	78.94602	788.86176	711.31421	-52.89004	1396.49451	1176.104	-123.9388	1199.68823	1272.91467	-127.75466	1075.2771	1275.71619	-107.14526	958.22461	1312.1499	-28.40035	838.84406	1304.28101	-75.58854	842.09949	1339.29065	-41.94168	760.92059	1338.73669	7.43626	932.76245	928.2453	7.60933	939.03192	1144.68652	-178.16623	944.69849	983.04498	-174.46303	946.53937	1129.56995	-19.10498	597.28833	886.01556	-26.9241	463.14099	906.72797	-90.56665	283.9809	900.00195	-143.07487	72.63489	954.18695	-193.28107	45.66217	1004.38019	1.78296	34.36996	954.6673	47.4786	618.21307	1212.802	88.24787	464.32608	1191.80225	-26.47264	329.08856	1194.29761	-131.92766	151.46198	1148.41943	-186.80873	132.0031	1092.57898	-24.95996	58.76286	1157.72546	57.251	1705.7196	1051.52112	-1973.09583	1023.60608	3101.9126	-2012.57446	1022.09094	3140.70264	NaN	NaN	NaN	NaN	NaN	NaN
135	1.34	43.62773	1667.72058	963.08203	77.39597	1670.74341	1072.56824	-73.74019	1634.70959	992.24982	-40.74885	1637.75488	1109.22461	-119.57697	1435.04443	1025.07935	-156.08766	1141.11853	1032.22168	22.18344	1366.33301	1026.23022	65.86126	1211.43579	1022.0249	-177.4635	1239.06653	1099.65393	-38.16377	1398.62817	864.77576	-62.27937	1215.09802	778.00922	-62.12323	1063.58716	772.85748	-10.14893	964.01874	740.6731	86.54196	862.55957	749.22772	32.32042	849.93201	727.34607	90.70901	790.65985	710.28955	-45.87186	1396.32397	1175.85083	-117.5783	1199.71655	1272.34155	-121.70546	1075.26599	1275.08728	-101.40469	958.18457	1311.5321	-22.81786	838.71918	1303.8562	-70.01162	842.00641	1338.7113	-36.52604	760.82965	1338.34143	14.06717	932.27344	928.00146	14.22532	939.19672	1144.29968	-171.55522	944.90161	982.75269	-167.74812	946.75177	1129.30151	-15.48511	596.75446	885.95245	-24.71947	462.659	906.65204	-89.18569	283.83542	900.04248	-142.89667	72.87576	954.26031	-193.19771	45.9936	1004.48669	1.91533	34.09658	954.70721	56.21199	619.25739	1212.3772	98.34547	465.65997	1191.06348	-10.75267	325.6145	1193.88831	-108.10519	143.45851	1147.78491	-162.17384	121.44775	1091.80701	3.14671	56.30746	1157.92566	64.92756	1705.50708	1051.61719	-1973.12427	1023.45526	3101.91919	-2012.51355	1022.03583	3140.5835	NaN	NaN	NaN	NaN	NaN	NaN
136	1.35	51.29488	1667.60938	963.25366	84.99213	1670.47778	1072.87952	-66.33424	1634.73987	992.3136	-33.25196	1637.56128	1109.29333	-112.15988	1435.08252	1024.74121	-149.08089	1141.22888	1031.4978	29.48642	1366.23547	1026.16882	73.05156	1211.23303	1021.91974	-170.44794	1239.06641	1098.90442	-30.31369	1398.83191	864.57544	-54.01984	1215.4303	777.48431	-53.58077	1063.75415	772.10498	-0.34456	964.8277	739.77765	97.52795	864.54852	748.06458	43.29488	851.24121	726.58331	102.41834	792.40564	709.39117	-38.8517	1396.13757	1175.7196	-111.12971	1199.62354	1271.823	-115.61057	1075.21069	1274.52637	-95.55743	958.15857	1311.24768	-17.12996	838.50336	1303.50793	-64.33989	841.86444	1338.24207	-30.9562	760.57904	1337.82446	20.58449	931.74078	927.76093	20.91931	939.29681	1143.99438	-164.97133	945.026	982.53204	-161.10278	946.92206	1129.14258	-11.70849	596.32996	885.91071	-22.31704	462.23685	906.46075	-87.85134	283.84595	900.00714	-142.62651	73.13472	954.32953	-193.15915	46.4121	1004.60229	2.05495	34.05259	954.69287	64.36051	620.02325	1211.88269	107.59731	466.96445	1190.26685	4.91592	322.13983	1193.58191	-84.07468	135.67819	1147.5968	-136.93352	110.73166	1091.89832	31.29033	54.25531	1158.31299	72.60954	1705.3291	1051.98462	-1973.05383	1023.47626	3101.91309	-2012.57568	1021.96143	3140.73608	NaN	NaN	NaN	NaN	NaN	NaN
137	1.36	58.90921	1667.57874	963.56183	92.57038	1670.16858	1073.0625	-58.71726	1634.74182	992.53497	-25.68549	1637.38403	1109.52393	-104.68204	1435.06885	1024.40234	-142.08136	1141.30579	1030.90955	36.9514	1366.04651	1026.11292	80.21199	1210.99658	1021.78131	-163.31996	1239.0553	1098.27417	-22.55896	1398.91125	864.42737	-45.80282	1215.73889	777.01263	-44.77139	1064.00757	771.39075	9.23553	965.5752	739.10205	108.2924	866.43671	747.13214	54.16607	852.36243	725.77887	113.99883	794.32062	708.51709	-31.727	1395.9563	1175.45056	-104.59109	1199.50366	1271.37354	-109.43037	1075.11072	1274.01111	-89.71851	957.94745	1310.54688	-11.42657	838.29767	1303.28296	-58.79624	841.67218	1337.85535	-25.38307	760.37091	1337.63892	27.03898	931.18695	927.59271	27.6181	939.30292	1143.72046	-158.47192	945.10254	982.43323	-154.40868	947.08069	1129.02271	-8.02946	595.8302	885.96796	-19.92005	461.83582	906.37073	-86.49609	283.81012	900.08789	-142.47646	73.44513	954.28662	-193.00162	46.89792	1004.7016	2.05972	34.10916	954.68213	72.05653	620.71881	1211.37524	116.71961	467.69025	1189.63147	20.5817	318.61282	1193.58301	-59.64812	128.13602	1147.59509	-111.5696	100.92176	1091.75745	59.53282	52.57458	1158.78516	80.12222	1705.09729	1052.09863	-1973.03992	1023.55371	3102.00537	-2012.50195	1022.01172	3140.64185	NaN	NaN	NaN	NaN	NaN	NaN
